<svg width="25" height="25" viewBox="0 0 25 25" fill="none" xmlns="http://www.w3.org/2000/svg">
<path d="M9.26659 21.5058V18.439C9.26657 17.659 9.90249 17.0252 10.6904 17.02H13.5765C14.3681 17.02 15.0099 17.6553 15.0099 18.439V18.439V21.5153C15.0097 22.1776 15.5436 22.7189 16.2124 22.7344H18.1365C20.0545 22.7344 21.6094 21.1951 21.6094 19.2962V19.2962V10.5722C21.5991 9.8252 21.2449 9.12372 20.6474 8.66741L14.0671 3.41968C12.9143 2.50594 11.2756 2.50594 10.1228 3.41968L3.5714 8.67693C2.97163 9.1314 2.61676 9.83404 2.60938 10.5817V19.2962C2.60938 21.1951 4.16425 22.7344 6.08229 22.7344H8.00634C8.69173 22.7344 9.24735 22.1843 9.24735 21.5058V21.5058" stroke="#C1A6A6" stroke-width="1.5" stroke-linecap="round" stroke-linejoin="round"/>
</svg>
