<svg width="24" height="24" viewBox="0 0 24 24" fill="none" xmlns="http://www.w3.org/2000/svg">
<g clip-path="url(#clip0_3722_287141)">
<path d="M12 24C18.6274 24 24 18.6274 24 12C24 5.37258 18.6274 0 12 0C5.37258 0 0 5.37258 0 12C0 18.6274 5.37258 24 12 24Z" fill="#039BE5"/>
<path d="M5.49126 11.7397L17.0613 7.27872C17.5983 7.08472 18.0673 7.40972 17.8933 8.22172L17.8943 8.22072L15.9243 17.5017C15.7783 18.1597 15.3873 18.3197 14.8403 18.0097L11.8403 15.7987L10.3933 17.1927C10.2333 17.3527 10.0983 17.4877 9.78826 17.4877L10.0013 14.4347L15.5613 9.41172C15.8033 9.19872 15.5073 9.07872 15.1883 9.29072L8.31726 13.6167L5.35526 12.6927C4.71226 12.4887 4.69826 12.0497 5.49126 11.7397Z" fill="#E5E5E5"/>
</g>
<defs>
<clipPath id="clip0_3722_287141">
<rect width="24" height="24" fill="white"/>
</clipPath>
</defs>
</svg>
