<svg width="25" height="25" viewBox="0 0 25 25" fill="none" xmlns="http://www.w3.org/2000/svg">
<path fill-rule="evenodd" clip-rule="evenodd" d="M17.9664 21.1514C19.8394 21.1514 21.3584 19.6334 21.3594 17.7604V17.7584V15.0584C20.1224 15.0584 19.1204 14.0564 19.1194 12.8194C19.1194 11.5834 20.1214 10.5804 21.3584 10.5804H21.3594V7.88037C21.3614 6.00637 19.8444 4.48638 17.9714 4.48438H17.9654H6.25338C4.37938 4.48438 2.86038 6.00238 2.85938 7.87637V7.87737V10.6674C4.05338 10.6254 5.05438 11.5594 5.09638 12.7534C5.09738 12.7754 5.09838 12.7974 5.09838 12.8194C5.09938 14.0544 4.10038 15.0564 2.86538 15.0584H2.85938V17.7584C2.85838 19.6314 4.37738 21.1514 6.25038 21.1514H6.25138H17.9664Z" stroke="#C1A6A6" stroke-width="1.5" stroke-linecap="round" stroke-linejoin="round"/>
<path fill-rule="evenodd" clip-rule="evenodd" d="M12.481 9.79741L13.097 11.0444C13.157 11.1664 13.273 11.2514 13.408 11.2714L14.785 11.4724C15.126 11.5224 15.261 11.9404 15.015 12.1794L14.019 13.1494C13.921 13.2444 13.877 13.3814 13.899 13.5164L14.134 14.8864C14.192 15.2254 13.837 15.4834 13.533 15.3234L12.302 14.6764C12.181 14.6124 12.037 14.6124 11.916 14.6764L10.686 15.3234C10.381 15.4834 10.026 15.2254 10.084 14.8864L10.319 13.5164C10.342 13.3814 10.297 13.2444 10.199 13.1494L9.20396 12.1794C8.95796 11.9404 9.09296 11.5224 9.43296 11.4724L10.81 11.2714C10.945 11.2514 11.062 11.1664 11.122 11.0444L11.737 9.79741C11.889 9.48941 12.329 9.48941 12.481 9.79741Z" stroke="#C1A6A6" stroke-width="1.5" stroke-linecap="round" stroke-linejoin="round"/>
</svg>
