<svg width="24" height="24" viewBox="0 0 24 24" fill="none" xmlns="http://www.w3.org/2000/svg">
<g clip-path="url(#clip0_3722_287133)">
<path d="M24 12C24 5.37258 18.6274 0 12 0C5.37258 0 0 5.37258 0 12C0 18.6274 5.37258 24 12 24C18.6274 24 24 18.6274 24 12Z" fill="#675DA9"/>
<path d="M17.877 6.09225C17.4801 5.72735 15.8731 4.55891 12.291 4.54291C12.291 4.54291 8.06861 4.28681 6.01026 6.1755C4.86423 7.3215 4.46089 8.99575 4.41927 11.0765C4.37766 13.154 4.32324 17.0499 8.07821 18.1062H8.08141L8.07821 19.7164C8.07821 19.7164 8.05581 20.3695 8.48476 20.5007C9.00336 20.6608 9.31066 20.1646 9.80686 19.63C10.079 19.3355 10.4535 18.9065 10.7384 18.5768C13.3057 18.7913 15.2809 18.2983 15.5049 18.2247C16.0235 18.055 18.959 17.6805 19.436 13.7847C19.929 9.7768 19.1959 7.2383 17.877 6.09225ZM18.3124 13.503C17.909 16.7553 15.5305 16.9602 15.092 17.1011C14.9063 17.1619 13.1713 17.5941 10.9881 17.45C10.9881 17.45 9.36186 19.4123 8.85611 19.9213C8.77606 20.0013 8.68321 20.0333 8.62241 20.0173C8.53596 19.9949 8.51036 19.8925 8.51356 19.742C8.51356 19.5244 8.52636 17.0627 8.52636 17.0627C8.52316 17.0627 8.52316 17.0627 8.52636 17.0627C5.34761 16.1823 5.53326 12.8659 5.56851 11.1309C5.60371 9.3959 5.93021 7.97135 6.90016 7.0142C8.63841 5.43925 12.2269 5.6729 12.2269 5.6729C15.2552 5.6857 16.7054 6.59805 17.0415 6.90215C18.1587 7.8625 18.7285 10.1513 18.3124 13.503Z" fill="#E5E5E5"/>
<path d="M13.7666 11.1917C13.6609 11.1917 13.5713 11.1085 13.5649 10.9996C13.5297 10.3114 13.2064 9.97529 12.5469 9.94009C12.4349 9.93369 12.3484 9.83764 12.3548 9.72559C12.3612 9.61354 12.4573 9.52714 12.5693 9.53354C13.44 9.58154 13.9266 10.0809 13.9714 10.9772C13.9778 11.0893 13.8914 11.1853 13.7794 11.1885C13.773 11.1917 13.7698 11.1917 13.7666 11.1917Z" fill="#E5E5E5"/>
<path d="M14.8038 11.5376H14.8006C14.6886 11.5344 14.599 11.4416 14.6022 11.3296C14.6182 10.6381 14.4197 10.0779 13.9971 9.61691C13.5778 9.15596 12.9984 8.90626 12.2333 8.85186C12.1212 8.84226 12.038 8.74621 12.0476 8.63416C12.0572 8.52211 12.1533 8.43891 12.2653 8.44851C13.1296 8.51251 13.8115 8.81341 14.298 9.34481C14.7878 9.87941 15.0247 10.5485 15.0087 11.3392C15.0055 11.4512 14.9127 11.5376 14.8038 11.5376Z" fill="#E5E5E5"/>
<path d="M15.866 11.9538C15.7539 11.9538 15.6643 11.8641 15.6643 11.7521C15.6547 10.5132 15.2993 9.56889 14.5759 8.86144C13.862 8.16359 12.9561 7.80824 11.8901 7.79864C11.7781 7.79864 11.6884 7.70584 11.6884 7.59379C11.6884 7.48174 11.7813 7.39209 11.8901 7.39209C13.0649 7.40169 14.0637 7.79544 14.8544 8.57014C15.6483 9.34484 16.0548 10.414 16.0676 11.7457C16.0708 11.8609 15.9812 11.9538 15.866 11.9538C15.8692 11.9538 15.8692 11.9538 15.866 11.9538ZM12.5944 13.6983C12.5944 13.6983 12.8793 13.724 13.0329 13.5351L13.3306 13.1606C13.4747 12.9749 13.8236 12.8564 14.1629 13.0453C14.3518 13.1509 14.6943 13.3622 14.9056 13.5191C15.1329 13.6855 15.5939 14.0697 15.5971 14.0729C15.8179 14.2586 15.8692 14.5307 15.7187 14.822C15.7187 14.822 15.7187 14.8252 15.7187 14.8284C15.565 15.1005 15.357 15.3566 15.0977 15.5934C15.0945 15.5934 15.0945 15.5966 15.0913 15.5966C14.8768 15.7759 14.6655 15.8783 14.4606 15.9008C14.435 15.9072 14.4062 15.9072 14.3678 15.9072C14.2782 15.9072 14.1885 15.8944 14.0989 15.8655L14.0925 15.8559C13.7724 15.7663 13.241 15.5422 12.3575 15.0524C11.7813 14.7355 11.3043 14.4122 10.8977 14.0889C10.6833 13.9192 10.4656 13.7304 10.2415 13.5063C10.2351 13.4999 10.2255 13.4903 10.2191 13.4839C10.2127 13.4775 10.2031 13.4679 10.1967 13.4615C10.1903 13.4551 10.1807 13.4455 10.1743 13.4391C10.1679 13.4327 10.1583 13.423 10.1519 13.4166C9.93098 13.1926 9.73893 12.9749 9.56928 12.7604C9.24593 12.3571 8.92263 11.8769 8.60573 11.3007C8.11593 10.4139 7.89183 9.88259 7.80223 9.56564L7.79263 9.55924C7.76378 9.46964 7.75098 9.37999 7.75098 9.29034C7.75098 9.25194 7.75098 9.22314 7.75738 9.19754C7.78303 8.98944 7.88543 8.78134 8.06153 8.56689C8.06153 8.56369 8.06473 8.56369 8.06473 8.56049C8.30158 8.29799 8.55768 8.09309 8.82978 7.93944C8.82978 7.93944 8.83298 7.93944 8.83618 7.93944C9.12428 7.78899 9.39638 7.84024 9.58528 8.06109C9.58528 8.06109 9.97263 8.52529 10.1391 8.75254C10.2959 8.96704 10.5072 9.30634 10.6128 9.49524C10.8017 9.83454 10.6833 10.1835 10.4976 10.3275L10.1231 10.6252C9.93418 10.7789 9.95978 11.0638 9.95978 11.0638C9.95978 11.0638 10.5136 13.1702 12.5944 13.6983Z" fill="#E5E5E5"/>
</g>
<defs>
<clipPath id="clip0_3722_287133">
<rect width="24" height="24" fill="white"/>
</clipPath>
</defs>
</svg>
