<svg width="22" height="22" viewBox="0 0 22 22" fill="none" xmlns="http://www.w3.org/2000/svg">
<path fill-rule="evenodd" clip-rule="evenodd" d="M17.8214 18.0699C14.7652 21.1263 10.2398 21.7867 6.53642 20.074C5.98971 19.8539 5.54148 19.676 5.11537 19.676C3.92849 19.683 2.45117 20.8339 1.68336 20.067C0.915554 19.2991 2.06726 17.8206 2.06726 16.6266C2.06726 16.2004 1.89642 15.7602 1.67632 15.2124C-0.0371693 11.5096 0.624109 6.98269 3.68026 3.92721C7.5816 0.0244319 13.92 0.0244322 17.8214 3.9262C21.7297 7.83501 21.7227 14.1681 17.8214 18.0699Z" stroke="#757575" stroke-width="1.5" stroke-linecap="round" stroke-linejoin="round"/>
<path d="M14.6894 11.413H14.6984" stroke="#757575" stroke-width="2" stroke-linecap="round" stroke-linejoin="round"/>
<path d="M10.6804 11.413H10.6894" stroke="#757575" stroke-width="2" stroke-linecap="round" stroke-linejoin="round"/>
<path d="M6.6714 11.413H6.6804" stroke="#757575" stroke-width="2" stroke-linecap="round" stroke-linejoin="round"/>
</svg>
