<svg width="21" height="22" viewBox="0 0 21 22" fill="none" xmlns="http://www.w3.org/2000/svg">
<path d="M10.9029 20.4062C10.7541 20.4062 10.6054 20.4062 10.4566 20.3975C5.55663 20.1787 1.46163 16.2325 1.12038 11.42C0.822882 7.28998 3.21163 3.43123 7.06163 1.81248C8.15538 1.35748 8.73288 1.70748 8.97788 1.96123C9.22288 2.20623 9.56413 2.77498 9.10913 3.81623C8.70663 4.74373 8.50538 5.73248 8.51413 6.74748C8.53163 10.6237 11.7516 13.9137 15.6804 14.0712C16.2491 14.0975 16.8091 14.0537 17.3516 13.9575C18.5066 13.7475 18.9879 14.2112 19.1716 14.5087C19.3554 14.8062 19.5654 15.445 18.8654 16.39C17.0104 18.9275 14.0616 20.4062 10.9029 20.4062ZM2.42413 11.3237C2.72163 15.4887 6.27413 18.9012 10.5091 19.085C13.3879 19.225 16.1179 17.9125 17.7979 15.62C17.9291 15.4362 17.9904 15.305 18.0166 15.235C17.9379 15.2262 17.7979 15.2175 17.5791 15.2612C16.9404 15.375 16.2754 15.4187 15.6191 15.3925C10.9991 15.2087 7.21913 11.3325 7.19288 6.76498C7.19288 5.55748 7.42913 4.39373 7.91038 3.29998C7.99788 3.10748 8.01538 2.97623 8.02413 2.90623C7.94538 2.90623 7.80538 2.92373 7.57788 3.01998C4.24413 4.41998 2.17913 7.76248 2.42413 11.3237Z" fill="#7C4DFF"/>
</svg>
