<svg width="276" height="125" viewBox="0 0 276 125" fill="none" xmlns="http://www.w3.org/2000/svg">
<g clip-path="url(#clip0_3665_94169)">
<path d="M166.339 98.9062H150L130.833 76.8281V98.9062H118.979V46.8853H130.833V68.1301L148.677 46.8853H163.057L142.12 71.5312L166.339 98.9062ZM175.786 46.8853V98.9062H163.932V46.8853H175.786ZM190.536 66.6197V98.9062H178.682V46.8853H190.536L211.214 79.1666H211.339V46.8853H223.208V98.9062H211.339L190.661 66.6197H190.536ZM273.13 69.776V81.0624C271.786 87.2395 268.844 91.9166 264.307 95.0885C259.771 98.2604 254.708 99.8437 249.115 99.8437C242.094 99.8437 236.109 97.2187 231.161 91.9635C226.224 86.7083 223.755 80.3593 223.755 72.9166C223.755 65.3541 226.172 58.9635 231.005 53.7499C235.844 48.5364 241.875 45.927 249.115 45.927C257.563 45.927 264.24 48.8958 269.156 54.828L261.411 63.3437C258.63 58.8853 254.766 56.6614 249.807 56.6614C246.151 56.6614 243.031 58.2447 240.443 61.4166C237.859 64.5885 236.568 68.4218 236.568 72.9166C236.568 77.3437 237.859 81.1197 240.443 84.2499C243.031 87.3801 246.151 88.9426 249.807 88.9426C252.833 88.9426 255.469 88.0312 257.719 86.2031C259.969 84.3645 261.089 81.9374 261.089 78.9218H249.115V69.776H273.13Z" stroke="black" stroke-width="4.72976"/>
<path d="M166.337 98.9056H150.004L130.837 76.8431V98.9056H118.983V46.8848H130.837V68.1348L148.671 46.8848H163.046L142.129 71.5306L166.337 98.9056Z" fill="#7C4DFF"/>
<path d="M175.79 46.8848V98.9056H163.936V46.8848H175.79Z" fill="#7C4DFF"/>
<path d="M190.543 66.6139V98.9056H178.688V46.8848H190.543L211.23 79.1764H211.355V46.8848H223.209V98.9056H211.355L190.668 66.6139H190.543Z" fill="#7C4DFF"/>
<path d="M273.142 69.7807V81.0515C271.793 87.2338 268.851 91.9161 264.309 95.0932C259.767 98.2598 254.694 99.8432 249.101 99.8432C242.085 99.8432 236.106 97.2182 231.163 91.9682C226.231 86.7182 223.767 80.3744 223.767 72.9265C223.767 65.3588 226.184 58.9682 231.017 53.7598C235.851 48.5411 241.877 45.9265 249.101 45.9265C257.559 45.9265 264.246 48.8953 269.163 54.8223L261.413 63.3432C258.632 58.8848 254.767 56.6557 249.809 56.6557C246.142 56.6557 243.017 58.2494 240.434 61.4265C237.851 64.5932 236.559 68.4265 236.559 72.9265C236.559 77.3432 237.851 81.1244 240.434 84.2598C243.017 87.3848 246.142 88.9473 249.809 88.9473C252.835 88.9473 255.476 88.0307 257.726 86.1973C259.976 84.364 261.101 81.9369 261.101 78.9057H249.101V69.7807H273.142Z" fill="#7C4DFF"/>
<path d="M3.07812 69.0053V57.3855L17.7604 47.9011H23.3229V99.4219H11.5677V63.5157L3.07812 69.0053Z" stroke="black" stroke-width="5.46435"/>
<path d="M3.08618 69.0043V57.3793L17.7528 47.9001H23.3153V99.421H11.5862V63.5043L3.08618 69.0043Z" fill="#7C4DFF"/>
<mask id="mask0_3665_94169" style="mask-type:luminance" maskUnits="userSpaceOnUse" x="13" y="21" width="73" height="104">
<path d="M13.9219 21.6667H85.6667V124.552H13.9219V21.6667Z" fill="white"/>
</mask>
<g mask="url(#mask0_3665_94169)">
<path d="M13.9844 124.068C17.2605 118.844 20.5417 113.625 23.8282 108.406L28.7553 100.589L33.7032 92.776L43.6146 77.1562L52.9115 62.526L40.9375 44.9635L37.7865 40.3438C36.7344 38.8073 35.6875 37.2656 34.625 35.7344L28.2605 26.5417L25.6823 22.8229L59.6355 22.5938L60.3542 23.875C61.3959 25.7448 62.4219 27.6302 63.4532 29.5052L64.224 30.9167L64.9844 32.3385L66.5157 35.1667L69.5417 40.8438L71.0886 43.7708C71.6719 42.8802 72.2605 41.9896 72.8542 41.099L74.6563 38.401L76.4792 35.7083L78.3021 33.026L80.1511 30.3542C81.3907 28.5781 82.6459 26.8073 83.9219 25.0521C84.0105 24.901 84.1303 24.8698 84.2813 24.9583C84.4323 25.0469 84.4636 25.1667 84.375 25.3177C83.448 27.276 82.5 29.224 81.5209 31.1615L80.0625 34.0625L78.5834 36.9531L77.0886 39.8385L75.5834 42.7083C74.5678 44.6198 73.5573 46.5313 72.5313 48.4375L71.0469 51.1823L69.2813 48.4115C68.125 46.6042 67 44.7865 65.8594 42.9688L62.474 37.5L59.9584 33.3906L59.125 32.026C58.2865 30.6354 57.4428 29.2448 56.6094 27.8542C55.9428 27.8542 35.6459 27.776 34.8386 27.7604L38.3282 33.2917C39.3178 34.8698 40.3282 36.4375 41.3282 38.0104L44.3386 42.7188L56.4011 61.5469L57.0313 62.526L56.4011 63.4375L45.9428 78.6927L35.4636 93.9375L30.224 101.552L24.9636 109.161C21.4584 114.24 17.9428 119.307 14.4167 124.359C14.323 124.505 14.2032 124.526 14.0573 124.432C13.9167 124.339 13.8907 124.219 13.9844 124.073V124.068Z" fill="black"/>
</g>
<mask id="mask1_3665_94169" style="mask-type:luminance" maskUnits="userSpaceOnUse" x="56" y="0" width="72" height="103">
<path d="M56.3334 0.552002H127.813V103H56.3334V0.552002Z" fill="white"/>
</mask>
<g mask="url(#mask1_3665_94169)">
<path d="M60.2969 93.828L61.7604 90.9269L63.2396 88.0363L64.7344 85.1509L66.2396 82.2811C67.2552 80.3644 68.2657 78.453 69.2917 76.5519L70.7761 73.8019L72.5417 76.5728C73.6979 78.3801 74.8229 80.203 75.9584 82.0207L79.349 87.4842L81.0261 90.229L81.8646 91.5988L82.6979 92.9634C83.5365 94.354 84.3698 95.7447 85.2032 97.1353C85.8698 97.1353 106.167 97.2186 106.974 97.2342L103.495 91.6978C102.5 90.1197 101.495 88.5519 100.49 86.979L97.4792 82.2707L85.4167 63.4426L84.7917 62.4634L85.4167 61.5519L95.875 46.328L106.359 31.1144L111.599 23.5155L116.859 15.9217C120.359 10.8592 123.875 5.80715 127.406 0.760277C127.5 0.624861 127.615 0.598819 127.755 0.68736C127.901 0.775902 127.927 0.895694 127.839 1.04153C124.557 6.25507 121.276 11.4686 117.995 16.6717L113.068 24.479L108.12 32.2759L98.2136 47.8697L88.9115 62.4634L100.875 80.0311L104.026 84.6457C105.083 86.1822 106.125 87.7238 107.188 89.2603L113.557 98.453L116.13 102.167L82.1771 102.396L81.4584 101.104C80.4115 99.2342 79.3854 97.3488 78.3594 95.4738L77.5834 94.0624L76.8177 92.6457L75.2865 89.8176L72.2761 84.1457L70.7344 81.2238L68.9688 83.8905L67.1667 86.5884L65.3438 89.2811L63.5209 91.9634L61.6719 94.6353C60.4323 96.4113 59.1771 98.1822 57.9011 99.9374C57.8073 100.062 57.6927 100.083 57.5625 100.005C57.4271 99.9217 57.3907 99.8124 57.4584 99.6717C58.375 97.7186 59.3229 95.7707 60.2969 93.828Z" fill="black"/>
</g>
</g>
<defs>
<clipPath id="clip0_3665_94169">
<rect width="276" height="125" fill="white"/>
</clipPath>
</defs>
</svg>
