<svg width="276" height="125" viewBox="0 0 276 125" fill="none" xmlns="http://www.w3.org/2000/svg">
<g clip-path="url(#clip0_3665_94136)">
<path d="M166.339 98.9062H150L130.833 76.8281V98.9062H118.979V46.8853H130.833V68.1301L148.677 46.8853H163.057L142.12 71.5312L166.339 98.9062ZM175.786 46.8853V98.9062H163.932V46.8853H175.786ZM190.536 66.6197V98.9062H178.682V46.8853H190.536L211.214 79.1666H211.339V46.8853H223.208V98.9062H211.339L190.661 66.6197H190.536ZM273.13 69.776V81.0624C271.786 87.2395 268.844 91.9166 264.307 95.0885C259.771 98.2604 254.708 99.8437 249.115 99.8437C242.094 99.8437 236.109 97.2187 231.161 91.9635C226.224 86.7083 223.755 80.3593 223.755 72.9166C223.755 65.3541 226.172 58.9635 231.005 53.7499C235.844 48.5364 241.875 45.927 249.115 45.927C257.563 45.927 264.24 48.8958 269.156 54.828L261.411 63.3437C258.63 58.8853 254.766 56.6614 249.807 56.6614C246.151 56.6614 243.031 58.2447 240.443 61.4166C237.859 64.5885 236.568 68.4218 236.568 72.9166C236.568 77.3437 237.859 81.1197 240.443 84.2499C243.031 87.3801 246.151 88.9426 249.807 88.9426C252.833 88.9426 255.469 88.0312 257.719 86.2031C259.969 84.3645 261.089 81.9374 261.089 78.9218H249.115V69.776H273.13Z" stroke="white" stroke-width="4.72976"/>
<path d="M166.337 98.9056H150.004L130.837 76.8431V98.9056H118.983V46.8848H130.837V68.1348L148.671 46.8848H163.046L142.129 71.5306L166.337 98.9056Z" fill="#7C4DFF"/>
<path d="M175.79 46.8848V98.9056H163.936V46.8848H175.79Z" fill="#7C4DFF"/>
<path d="M190.543 66.6139V98.9056H178.688V46.8848H190.543L211.23 79.1764H211.355V46.8848H223.209V98.9056H211.355L190.668 66.6139H190.543Z" fill="#7C4DFF"/>
<path d="M273.142 69.7807V81.0515C271.793 87.2338 268.851 91.9161 264.309 95.0932C259.767 98.2598 254.694 99.8432 249.101 99.8432C242.085 99.8432 236.106 97.2182 231.163 91.9682C226.231 86.7182 223.767 80.3744 223.767 72.9265C223.767 65.3588 226.184 58.9682 231.017 53.7598C235.851 48.5411 241.877 45.9265 249.101 45.9265C257.559 45.9265 264.246 48.8953 269.163 54.8223L261.413 63.3432C258.632 58.8848 254.767 56.6557 249.809 56.6557C246.142 56.6557 243.017 58.2494 240.434 61.4265C237.851 64.5932 236.559 68.4265 236.559 72.9265C236.559 77.3432 237.851 81.1244 240.434 84.2598C243.017 87.3848 246.142 88.9473 249.809 88.9473C252.835 88.9473 255.476 88.0307 257.726 86.1973C259.976 84.364 261.101 81.9369 261.101 78.9057H249.101V69.7807H273.142Z" fill="#7C4DFF"/>
<path d="M3.07812 69.0053V57.3855L17.7604 47.9011H23.3229V99.4219H11.5677V63.5157L3.07812 69.0053Z" stroke="white" stroke-width="5.46435"/>
<path d="M3.08618 69.0046V57.3796L17.7528 47.9004H23.3153V99.4212H11.5862V63.5046L3.08618 69.0046Z" fill="#7C4DFF"/>
<mask id="mask0_3665_94136" style="mask-type:luminance" maskUnits="userSpaceOnUse" x="13" y="21" width="73" height="104">
<path d="M13.9219 21.6667H85.6667V124.552H13.9219V21.6667Z" fill="white"/>
</mask>
<g mask="url(#mask0_3665_94136)">
<path d="M13.875 124.266C17.1563 119.037 20.4428 113.807 23.7292 108.578L28.6615 100.755L33.6146 92.9272L43.5313 77.2814L52.8386 62.6304L40.8542 45.0366L37.7032 40.4116C36.6459 38.87 35.599 37.3231 34.5365 35.7918L28.1615 26.5835L25.5886 22.8595L59.573 22.6304L60.2865 23.9116C61.3334 25.7866 62.3594 27.672 63.3907 29.5522L64.1667 30.9689L64.9271 32.3908L66.4584 35.2241L69.4896 40.9064L71.0313 43.8439C71.6198 42.9481 72.2084 42.0575 72.7969 41.1616L74.6042 38.4637L76.4323 35.7658L78.2553 33.0835L80.1042 30.4064C81.3438 28.62 82.6042 26.8491 83.875 25.0939C83.9688 24.9429 84.0886 24.9116 84.2396 25.0002C84.3907 25.0887 84.4219 25.2085 84.3334 25.3595C83.4063 27.3231 82.4532 29.271 81.4792 31.2085L80.0157 34.1147L78.5313 37.0106L77.0417 39.9012L75.5313 42.7814C74.5157 44.6929 73.5053 46.6095 72.474 48.5158L70.9896 51.2658L69.224 48.495C68.0678 46.6772 66.9428 44.8543 65.8021 43.0366L62.4115 37.5627L60.7292 34.8127L59.8907 33.4481L59.0573 32.0783C58.2188 30.6825 57.375 29.2918 56.5417 27.896C55.875 27.896 35.5573 27.8179 34.75 27.8022L38.2396 33.3491C39.2344 34.9272 40.2448 36.495 41.2448 38.0731L44.2605 42.7866L56.3334 61.646L56.9636 62.6304L56.3334 63.5418L45.8646 78.8231L35.375 94.0887L30.125 101.719L24.8646 109.339C21.3594 114.427 17.8386 119.5 14.3073 124.563C14.2136 124.708 14.0938 124.729 13.948 124.636C13.8073 124.542 13.7813 124.422 13.875 124.276V124.266Z" fill="white"/>
</g>
<mask id="mask1_3665_94136" style="mask-type:luminance" maskUnits="userSpaceOnUse" x="56" y="0" width="72" height="103">
<path d="M56.3334 0.552002H127.813V103H56.3334V0.552002Z" fill="white"/>
</mask>
<g mask="url(#mask1_3665_94136)">
<path d="M60.2344 93.979L61.6979 91.0728L63.1771 88.1769L64.6719 85.2915L66.1823 82.4113C67.1979 80.4947 68.2083 78.5832 69.2344 76.6769L70.7239 73.9217L72.4896 76.6978C73.6458 78.5103 74.7708 80.3332 75.9114 82.1561L79.3021 87.6301L80.9792 90.3749L81.8229 91.7447L82.651 93.1144C83.4948 94.5103 84.3281 95.9009 85.1614 97.2967C85.8281 97.2967 106.146 97.3749 106.953 97.3905L103.474 91.8436C102.479 90.2655 101.469 88.6978 100.464 87.1249L97.4531 82.4009L85.375 63.5415L84.75 62.5624L85.375 61.6509L95.8437 46.4009L106.339 31.1665L111.583 23.5519L116.849 15.9478C120.354 10.8749 123.87 5.81236 127.406 0.760277C127.5 0.624861 127.615 0.598819 127.755 0.68736C127.901 0.781111 127.927 0.895694 127.839 1.04674C124.552 6.26549 121.271 11.4842 117.984 16.6978L113.052 24.5207L108.099 32.328L98.1823 47.9426L88.875 62.5624L100.849 80.1613L104.005 84.7863C105.057 86.3228 106.104 87.8697 107.167 89.4009L113.542 98.6092L116.115 102.333L82.1302 102.562L81.4167 101.271C80.3698 99.3957 79.3385 97.5103 78.3073 95.6301L77.5364 94.2134L75.2396 89.9634L72.2239 84.2863L70.6823 81.354L68.9114 84.0259L67.1042 86.729L65.2812 89.4269L63.4583 92.1144L61.6094 94.7863C60.3698 96.5728 59.1146 98.3384 57.8333 100.099C57.7396 100.224 57.6302 100.25 57.4948 100.167C57.3594 100.088 57.3229 99.9738 57.3906 99.8332C58.3073 97.8749 59.2552 95.9269 60.2344 93.979Z" fill="white"/>
</g>
</g>
<defs>
<clipPath id="clip0_3665_94136">
<rect width="276" height="125" fill="white"/>
</clipPath>
</defs>
</svg>
