<svg width="22" height="23" viewBox="0 0 22 23" fill="none" xmlns="http://www.w3.org/2000/svg">
<path d="M8.26659 20.5058V17.439C8.26657 16.659 8.90249 16.0252 9.69039 16.02H12.5765C13.3681 16.02 14.0099 16.6553 14.0099 17.439V17.439V20.5153C14.0097 21.1776 14.5436 21.7189 15.2124 21.7344H17.1365C19.0545 21.7344 20.6094 20.1951 20.6094 18.2962V18.2962V9.57221C20.5991 8.8252 20.2449 8.12372 19.6474 7.66741L13.0671 2.41968C11.9143 1.50594 10.2756 1.50594 9.12279 2.41968L2.5714 7.67693C1.97163 8.1314 1.61676 8.83404 1.60938 9.58173V18.2962C1.60938 20.1951 3.16425 21.7344 5.08229 21.7344H7.00634C7.69173 21.7344 8.24735 21.1843 8.24735 20.5058V20.5058" stroke="#7C4DFF" stroke-width="1.5" stroke-linecap="round" stroke-linejoin="round"/>
</svg>
