<svg width="512" height="512" viewBox="0 0 512 512" fill="none" xmlns="http://www.w3.org/2000/svg">
<path d="M73.7501 392C67.3042 392 61.9049 389.816 57.5521 385.448C53.1992 381.08 51.0152 375.68 51.0001 369.25C50.9849 362.819 53.1689 357.42 57.5521 353.052C61.9352 348.684 67.3346 346.5 73.7501 346.5H437.75C444.195 346.5 449.602 348.684 453.97 353.052C458.338 357.42 460.515 362.819 460.5 369.25C460.484 375.68 458.3 381.087 453.948 385.47C449.595 389.854 444.195 392.03 437.75 392H73.7501ZM73.7501 278.25C67.3042 278.25 61.9049 276.066 57.5521 271.698C53.1992 267.33 51.0152 261.931 51.0001 255.5C50.9849 249.069 53.1689 243.67 57.5521 239.302C61.9352 234.934 67.3346 232.75 73.7501 232.75H437.75C444.195 232.75 449.602 234.934 453.97 239.302C458.338 243.67 460.515 249.069 460.5 255.5C460.484 261.931 458.3 267.337 453.948 271.721C449.595 276.104 444.195 278.28 437.75 278.25H73.7501ZM73.7501 164.5C67.3042 164.5 61.9049 162.316 57.5521 157.948C53.1992 153.58 51.0152 148.181 51.0001 141.75C50.9849 135.319 53.1689 129.92 57.5521 125.552C61.9352 121.184 67.3346 119 73.7501 119H437.75C444.195 119 449.602 121.184 453.97 125.552C458.338 129.92 460.515 135.319 460.5 141.75C460.484 148.181 458.3 153.588 453.948 157.971C449.595 162.354 444.195 164.53 437.75 164.5H73.7501Z" fill="#757575"/>
</svg>
