<svg width="512" height="512" viewBox="0 0 512 512" fill="none" xmlns="http://www.w3.org/2000/svg">
<path fill-rule="evenodd" clip-rule="evenodd" d="M254.93 271.157H255.648C321.315 271.157 374.715 217.757 374.715 152.089C374.715 86.4221 321.315 33 255.648 33C189.958 33 136.536 86.4221 136.536 152.022C136.312 217.51 189.397 270.955 254.93 271.157ZM168.562 152.089C168.562 104.072 207.631 65.0263 255.648 65.0263C303.642 65.0263 342.689 104.072 342.689 152.089C342.689 200.084 303.642 239.153 255.648 239.153H254.997C207.182 238.973 168.405 199.95 168.562 152.089Z" fill="#757575"/>
<path fill-rule="evenodd" clip-rule="evenodd" d="M78 395.726C78 478.64 211.712 478.64 255.647 478.64C331.878 478.64 433.25 470.095 433.25 396.174C433.25 313.26 299.583 313.26 255.647 313.26C179.394 313.26 78 321.805 78 395.726ZM111.641 395.726C111.641 363.318 160.084 346.901 255.647 346.901C351.188 346.901 399.609 363.475 399.609 396.174C399.609 428.582 351.188 444.999 255.647 444.999C160.084 444.999 111.641 428.425 111.641 395.726Z" fill="#757575"/>
</svg>
