<svg width="24" height="24" viewBox="0 0 24 24" fill="none" xmlns="http://www.w3.org/2000/svg">
<path d="M15.8548 2.75H9.68781C8.32529 2.7508 7.01884 3.29254 6.05558 4.25618C5.09232 5.21981 4.55108 6.52648 4.55081 7.889V16.111C4.55081 18.949 6.85081 21.25 9.68881 21.25H15.8558C18.6938 21.25 20.9948 18.95 20.9948 16.111V7.89C20.9948 5.052 18.6948 2.751 15.8558 2.751M3.00781 8.403H6.09081M3.00781 15.597H6.09081" stroke="#7C4DFF" stroke-width="1.5" stroke-linecap="round" stroke-linejoin="round"/>
<path d="M16.6716 16.7449C16.6716 15.0919 14.8286 13.7489 13.1766 13.7489C11.5246 13.7489 9.68164 15.0919 9.68164 16.7439M13.1766 11.3679C13.485 11.3679 13.7903 11.3071 14.0752 11.1891C14.3601 11.0711 14.6189 10.8982 14.8369 10.6802C15.055 10.4621 15.2279 10.2033 15.3459 9.91842C15.4639 9.63354 15.5246 9.32822 15.5246 9.01988C15.5246 8.71153 15.4639 8.40621 15.3459 8.12133C15.2279 7.83646 15.055 7.57762 14.8369 7.35959C14.6189 7.14156 14.3601 6.9686 14.0752 6.85061C13.7903 6.73261 13.485 6.67187 13.1766 6.67188C12.5539 6.67188 11.9567 6.91925 11.5164 7.35959C11.076 7.79992 10.8286 8.39715 10.8286 9.01988C10.8286 9.6426 11.076 10.2398 11.5164 10.6802C11.9567 11.1205 12.5539 11.3679 13.1766 11.3679Z" stroke="#7C4DFF" stroke-width="1.5" stroke-linecap="round" stroke-linejoin="round"/>
</svg>
