<?xml version="1.0" encoding="UTF-8"?>
<svg width="24px" height="24px" viewBox="0 0 24 24" version="1.1" xmlns="http://www.w3.org/2000/svg">
    <g stroke="none" stroke-width="1" fill="none" fill-rule="evenodd">
        <path
            d="M4,4 L20,4 C20,5.1 20.9,6 22,6 L22,10 C20.9,10 20,10.9 20,12 C20,13.1 20.9,14 22,14 L22,18 C20.9,18 20,18.9 20,20 L4,20 C4,18.9 3.1,18 2,18 L2,14 C3.1,14 4,13.1 4,12 C4,10.9 3.1,10 2,10 L2,6 C3.1,6 4,5.1 4,4 Z"
            stroke="currentColor" stroke-width="2" stroke-linecap="round" stroke-linejoin="round"></path>
    </g>
</svg> 