<svg width="25" height="24" viewBox="0 0 25 24" fill="none" xmlns="http://www.w3.org/2000/svg">
<path fill-rule="evenodd" clip-rule="evenodd" d="M18.607 20.417C20.48 20.417 21.999 18.899 22 17.026V17.024V14.324C20.763 14.324 19.761 13.322 19.76 12.085C19.76 10.849 20.762 9.846 21.999 9.846H22V7.146C22.002 5.272 20.485 3.752 18.612 3.75H18.606H6.894C5.02 3.75 3.501 5.268 3.5 7.142V7.143V9.933C4.694 9.891 5.695 10.825 5.737 12.019C5.738 12.041 5.739 12.063 5.739 12.085C5.74 13.32 4.741 14.322 3.506 14.324H3.5V17.024C3.499 18.897 5.018 20.417 6.891 20.417H6.892H18.607Z" stroke="#9E9E9E" stroke-width="1.5" stroke-linecap="round" stroke-linejoin="round"/>
<path fill-rule="evenodd" clip-rule="evenodd" d="M13.1216 9.06303L13.7376 10.31C13.7976 10.432 13.9136 10.517 14.0486 10.537L15.4256 10.738C15.7666 10.788 15.9016 11.206 15.6556 11.445L14.6596 12.415C14.5616 12.51 14.5176 12.647 14.5396 12.782L14.7746 14.152C14.8326 14.491 14.4776 14.749 14.1736 14.589L12.9426 13.942C12.8216 13.878 12.6776 13.878 12.5566 13.942L11.3266 14.589C11.0216 14.749 10.6666 14.491 10.7246 14.152L10.9596 12.782C10.9826 12.647 10.9376 12.51 10.8396 12.415L9.84458 11.445C9.59858 11.206 9.73358 10.788 10.0736 10.738L11.4506 10.537C11.5856 10.517 11.7026 10.432 11.7626 10.31L12.3776 9.06303C12.5296 8.75503 12.9696 8.75503 13.1216 9.06303Z" stroke="#9E9E9E" stroke-width="1.5" stroke-linecap="round" stroke-linejoin="round"/>
</svg>
