<svg width="21" height="19" viewBox="0 0 21 19" fill="none" xmlns="http://www.w3.org/2000/svg">
<path fill-rule="evenodd" clip-rule="evenodd" d="M16.4822 17.4171C18.3552 17.4171 19.8742 15.8991 19.8752 14.0261V14.0241V11.3241C18.6382 11.3241 17.6362 10.3221 17.6352 9.08512C17.6352 7.84912 18.6372 6.84612 19.8742 6.84612H19.8752V4.14612C19.8772 2.27212 18.3602 0.752122 16.4872 0.750122H16.4812H4.7692C2.8952 0.750122 1.3762 2.26812 1.3752 4.14212V4.14312V6.93312C2.5692 6.89112 3.5702 7.82512 3.6122 9.01912C3.6132 9.04112 3.6142 9.06312 3.6142 9.08512C3.6152 10.3201 2.6162 11.3221 1.3812 11.3241H1.3752V14.0241C1.3742 15.8971 2.8932 17.4171 4.7662 17.4171H4.7672H16.4822Z" stroke="#757575" stroke-width="1.5" stroke-linecap="round" stroke-linejoin="round"/>
<path fill-rule="evenodd" clip-rule="evenodd" d="M10.9963 6.06309L11.6123 7.31009C11.6723 7.43209 11.7883 7.51709 11.9233 7.53709L13.3003 7.73809C13.6413 7.78809 13.7763 8.20609 13.5303 8.44509L12.5343 9.41509C12.4363 9.51009 12.3923 9.64709 12.4143 9.78209L12.6493 11.1521C12.7073 11.4911 12.3523 11.7491 12.0483 11.5891L10.8173 10.9421C10.6963 10.8781 10.5523 10.8781 10.4313 10.9421L9.20131 11.5891C8.89631 11.7491 8.54131 11.4911 8.59931 11.1521L8.83431 9.78209C8.85731 9.64709 8.81231 9.51009 8.71431 9.41509L7.71931 8.44509C7.47331 8.20609 7.60831 7.78809 7.94831 7.73809L9.32531 7.53709C9.46031 7.51709 9.57731 7.43209 9.63731 7.31009L10.2523 6.06309C10.4043 5.75509 10.8443 5.75509 10.9963 6.06309Z" stroke="#757575" stroke-width="1.5" stroke-linecap="round" stroke-linejoin="round"/>
</svg>
